<svg id="Layer_1" data-name="Layer 1" xmlns="http://www.w3.org/2000/svg" viewBox="0 0 193.06 391.67"><defs><style>.cls-1{fill:#302e2f;}.cls-2{fill:#fff;}</style></defs><path class="cls-1" d="M258.23,62.9V340.62a5.63,5.63,0,0,0-.71,0,5.53,5.53,0,0,0-.71,0V62.9Z" transform="translate(-159.47 -60.16)"/><path class="cls-1" d="M258.23,354.17v78.14a5.63,5.63,0,0,0-.71,0,5.53,5.53,0,0,0-.71,0V354.17a5.53,5.53,0,0,0,.71,0A5.63,5.63,0,0,0,258.23,354.17Z" transform="translate(-159.47 -60.16)"/><path class="cls-1" d="M297.73,222.15c-.11-.53-.24-1.06-.37-1.58-.1-.37-.19-.74-.3-1.11s-.18-.68-.29-1A67.27,67.27,0,0,0,264.1,178a64.46,64.46,0,0,0-5.87-2.8c-.47-.2-1-.4-1.42-.58a66.92,66.92,0,0,0-74.31,17.76c-.54.6-1.06,1.19-1.58,1.81v0a65.8,65.8,0,0,0-6.36,9.06h0c-.41.69-.8,1.38-1.18,2.09h0A67.36,67.36,0,0,0,169,215.55c-.25.77-.5,1.54-.72,2.31h0a65.94,65.94,0,0,0-2.3,10.83c-.1.81-.18,1.61-.25,2.43q-.27,2.93-.27,5.93c0,1.73.07,3.44.2,5.14.06.81.14,1.6.23,2.4h0a66.25,66.25,0,0,0,3.62,15.4l.12.32a67.29,67.29,0,0,0,44.22,41.11l1,.28.46.12c.52.14,1,.28,1.57.4a67,67,0,0,0,23.64,1.34l1.17-.15a66.3,66.3,0,0,0,15.16-4c.47-.18.95-.38,1.42-.58a66.92,66.92,0,0,0,21.25-14.18c.26-.25.52-.51.76-.77a67.07,67.07,0,0,0,14.84-23.17c.15-.39.3-.79.44-1.19a67,67,0,0,0,2.21-37.42ZM294,259.57c-.15.4-.3.8-.46,1.2a65.81,65.81,0,0,1-14.3,22.15l-.79.79a65.81,65.81,0,0,1-20.23,13.63c-.47.21-1,.41-1.42.59a65.62,65.62,0,0,1-40.37,2.74l-.45-.11h0l-1-.3h-.05a65.88,65.88,0,0,1-43.78-39.92L171,260a64.71,64.71,0,0,1-3.73-15.7c-.08-.71-.15-1.41-.2-2.12-.14-1.68-.2-3.38-.2-5.1,0-2,.09-4,.28-6,0-.71.12-1.41.22-2.11a63.78,63.78,0,0,1,2.28-10.82c.2-.67.41-1.35.64-2A65.2,65.2,0,0,1,174.69,206c.33-.63.67-1.24,1-1.85a63.79,63.79,0,0,1,6.36-9.06c.45-.55.91-1.09,1.4-1.61a65.36,65.36,0,0,1,48.92-22,64.11,64.11,0,0,1,7.64.45c.31,0,.63.07.94.12a64,64,0,0,1,9,1.83,63.23,63.23,0,0,1,6.8,2.31c.47.18.95.38,1.42.59q2.59,1.11,5.06,2.43a65.07,65.07,0,0,1,8,5.07h0l.32.24h0a65.76,65.76,0,0,1,24,35.05c.06.2.11.4.16.6s.09.3.13.46c.09.36.19.73.27,1.1A65.56,65.56,0,0,1,298,237.06q0,2.2-.15,4.38c0,.36,0,.72-.08,1.07A64.93,64.93,0,0,1,294,259.57Z" transform="translate(-159.47 -60.16)"/><path class="cls-1" d="M342.36,260.32c0-.11-.09-.21-.13-.31a67.22,67.22,0,0,0-44.87-39.44l-1.11-.28a2.47,2.47,0,0,0-.47-.11,6.23,6.23,0,0,0-.62-.15,66.39,66.39,0,0,0-15-1.69c-2,0-4.09.09-6.09.29h-.06a.42.42,0,0,0-.16,0s0,0,0,0a65.05,65.05,0,0,0-15.65,3.4c-.48.16-1,.33-1.42.51a67.11,67.11,0,0,0-23.22,14.7l-.79.78a67.19,67.19,0,0,0-14.43,21.52c-.17.4-.33.8-.49,1.21a67,67,0,0,0-3,39.49.06.06,0,0,0,0,0h0c.08.35.16.71.25,1.06,0,.15.07.3.12.46A67.26,67.26,0,0,0,249.65,345h0l1.3.64a6.68,6.68,0,0,1,.52-1.33c-.43-.2-.86-.42-1.28-.64a65.84,65.84,0,0,1-33.35-41.4c-.14-.52-.27-1-.4-1.56,0-.16-.07-.31-.11-.46-.08-.37-.17-.74-.24-1.11a65.72,65.72,0,0,1-.72-23.61c0-.12,0-.24,0-.35a65.06,65.06,0,0,1,4-14.36q.24-.61.51-1.23a65.74,65.74,0,0,1,13.87-20.49c.27-.28.55-.54.82-.8a65.76,65.76,0,0,1,22.2-14.18c.47-.18.94-.36,1.42-.52A65.44,65.44,0,0,1,294,221.22c.39.07.76.16,1.14.24l1.09.28c.52.12,1,.26,1.55.41A65.81,65.81,0,0,1,340.68,260a3.35,3.35,0,0,1,.15.35,65,65,0,0,1,4.95,25c0,.28,0,.57,0,.85h0c0,.72,0,1.42-.06,2.12a63.05,63.05,0,0,1-1.43,11c-.14.7-.3,1.38-.47,2.07a65.74,65.74,0,0,1-3.63,10.5c-.29.64-.59,1.29-.9,1.92h0a64.93,64.93,0,0,1-5.67,9.55q-.62.87-1.26,1.71a65.28,65.28,0,0,1-7.45,8.22c-.51.49-1,1-1.57,1.42a65.59,65.59,0,0,1-57.79,14.56c-.46-.1-.93-.22-1.38-.34a6.16,6.16,0,0,1-.47,1.35l1.41.35a67,67,0,0,0,59-14.7c.6-.52,1.2-1.06,1.79-1.62a66.59,66.59,0,0,0,7.45-8.2c.49-.63,1-1.27,1.43-1.93a64.52,64.52,0,0,0,5.67-9.51c.35-.72.7-1.45,1-2.18A65.55,65.55,0,0,0,345.1,302h0c.21-.78.39-1.56.56-2.35a66.24,66.24,0,0,0,1.47-11h0c0-.8.06-1.6.06-2.42h0c0-.31,0-.61,0-.92A66.53,66.53,0,0,0,342.36,260.32Z" transform="translate(-159.47 -60.16)"/><path class="cls-1" d="M257.52,215.47h-.14a.67.67,0,0,0-.57.29.66.66,0,0,0,0,.84.7.7,0,0,0,.57.29h.14a.71.71,0,0,0,0-1.42Zm5.73.35h-.1a.71.71,0,0,0-.7.63.73.73,0,0,0,.62.8h.09a.71.71,0,0,0,.71-.62v-.09A.71.71,0,0,0,263.25,215.82Zm-10.81.63a.71.71,0,0,0-.7-.62h-.09a.71.71,0,0,0,.09,1.42h.09a.7.7,0,0,0,.62-.7A.34.34,0,0,0,252.44,216.45Zm16.44.45a.51.51,0,0,0-.17,0,.71.71,0,0,0-.69.54.7.7,0,0,0,.52.86l.17,0a.71.71,0,0,0,.69-.53.55.55,0,0,0,0-.17A.7.7,0,0,0,268.88,216.9Zm-22,.54a.71.71,0,0,0-.69-.53l-.18,0a.71.71,0,0,0,.18,1.4l.18,0a.7.7,0,0,0,.53-.68A1.1,1.1,0,0,0,246.88,217.44Zm27.47,1.23a.59.59,0,0,0-.23,0h-.06a.42.42,0,0,0-.16,0s0,0,0,0a.67.67,0,0,0-.45.42.7.7,0,0,0,.4.92.6.6,0,0,0,.26,0,.74.74,0,0,0,.67-.45.8.8,0,0,0,.05-.26A.69.69,0,0,0,274.35,218.67Zm-32.87.45a.7.7,0,0,0-.66-.45.58.58,0,0,0-.26.05.71.71,0,0,0,.26,1.37.8.8,0,0,0,.26-.05.71.71,0,0,0,.45-.67A.56.56,0,0,0,241.48,219.12Zm38.07,2a.63.63,0,0,0-.34-.1.72.72,0,0,0-.35,1.34.73.73,0,0,0,.35.09.71.71,0,0,0,.62-.37.72.72,0,0,0,.09-.34A.69.69,0,0,0,279.55,221.12Zm-43.21.34a.7.7,0,0,0-.62-.37.73.73,0,0,0-.35.09.71.71,0,0,0-.27,1,.7.7,0,0,0,.62.36.81.81,0,0,0,.34-.08.71.71,0,0,0,.37-.63A.69.69,0,0,0,236.34,221.46Zm48,2.74a.7.7,0,0,0-.41-.14.72.72,0,0,0-.58.29.7.7,0,0,0,.16,1,.66.66,0,0,0,.42.14.7.7,0,0,0,.57-.29.75.75,0,0,0,.14-.42A.67.67,0,0,0,284.39,224.2Zm-52.86.23a.7.7,0,0,0-.58-.3.75.75,0,0,0-.42.14.73.73,0,0,0-.15,1,.72.72,0,0,0,.57.29.71.71,0,0,0,.42-.14.7.7,0,0,0,.3-.57A.71.71,0,0,0,231.53,224.43Zm57.28,3.43h0a.75.75,0,0,0-.48-.19.71.71,0,0,0-.52.23.7.7,0,0,0,0,1l0,0a.73.73,0,0,0,.48.19.71.71,0,0,0,.52-.23.68.68,0,0,0,.19-.48A.7.7,0,0,0,288.81,227.86Zm-61.68.11a.7.7,0,0,0-.52-.22.68.68,0,0,0-.48.19.71.71,0,0,0,0,1,.7.7,0,0,0,.51.22.69.69,0,0,0,.49-.19.73.73,0,0,0,0-1ZM292.75,232a.71.71,0,0,0-.55-.26.75.75,0,0,0-.45.16.71.71,0,0,0,.45,1.26.72.72,0,0,0,.46-.16.7.7,0,0,0,.25-.55A.71.71,0,0,0,292.75,232Zm-69.54,0a.74.74,0,0,0-.46-.16.69.69,0,0,0-.54.25.72.72,0,0,0,.1,1,.66.66,0,0,0,.44.16.7.7,0,0,0,.55-.25.75.75,0,0,0,.17-.46A.71.71,0,0,0,223.21,232Zm72.92,4.64a.72.72,0,0,0-.6-.33.65.65,0,0,0-.38.11.69.69,0,0,0-.22,1,.68.68,0,0,0,.6.33.67.67,0,0,0,.38-.11.72.72,0,0,0,.33-.6A.76.76,0,0,0,296.13,236.68Zm-76.31-.11a.68.68,0,0,0-.38-.12.73.73,0,0,0-.6.34.71.71,0,0,0,.22,1,.76.76,0,0,0,.38.11.72.72,0,0,0,.6-.33.76.76,0,0,0,.11-.38A.69.69,0,0,0,219.82,236.57Zm79.08,5.13a.71.71,0,0,0-.65-.41.82.82,0,0,0-.3.07.28.28,0,0,0-.11.08.71.71,0,0,0-.23.87.62.62,0,0,0,.15.2.67.67,0,0,0,.5.21.66.66,0,0,0,.3-.07.72.72,0,0,0,.4-.65A.8.8,0,0,0,298.9,241.7ZM217,241.49a.59.59,0,0,0-.29-.07.71.71,0,0,0-.65.41.72.72,0,0,0,.34.95.81.81,0,0,0,.31.06.71.71,0,0,0,.64-.41.66.66,0,0,0,.07-.3A.71.71,0,0,0,217,241.49ZM301,247a.73.73,0,0,0-.68-.49.83.83,0,0,0-.22,0,.71.71,0,0,0-.45.9.7.7,0,0,0,.67.49.78.78,0,0,0,.22,0,.72.72,0,0,0,.49-.69A.76.76,0,0,0,301,247Zm-86.14-.33a.91.91,0,0,0-.23,0,.71.71,0,0,0-.21,1.39.76.76,0,0,0,.21,0,.72.72,0,0,0,.68-.49.78.78,0,0,0,0-.22A.73.73,0,0,0,214.88,246.71Zm87.56,5.89a.71.71,0,0,0-.69-.58l-.14,0a.71.71,0,0,0,.14,1.4h.13a.71.71,0,0,0,.58-.7A.59.59,0,0,0,302.44,252.6Zm-89.05-.43h-.12a.71.71,0,0,0-.13,1.41h.13A.71.71,0,0,0,214,253a.68.68,0,0,0,0-.14A.7.7,0,0,0,213.39,252.17Zm89.06,5.46h0a.72.72,0,0,0-.67.75.71.71,0,0,0,.71.67h0a.72.72,0,0,0,.67-.71v0A.72.72,0,0,0,302.45,257.63Zm-89.83.14h-.05a.71.71,0,0,0,0,1.42h.05a.71.71,0,0,0,.71-.67v0A.71.71,0,0,0,212.62,257.77Zm89.88,5.51h0a.71.71,0,0,0-.71.67.7.7,0,0,0,.66.75h0a.7.7,0,0,0,.71-.66V264A.7.7,0,0,0,302.5,263.28Zm-89.91.14h0a.71.71,0,0,0,0,1.42h0a.71.71,0,0,0,.67-.71v0A.72.72,0,0,0,212.59,263.42Zm89.3,5.48h-.14a.71.71,0,0,0-.69.58.71.71,0,0,0,.57.83h.12a.72.72,0,0,0,.71-.58.57.57,0,0,0,0-.13A.72.72,0,0,0,301.89,268.9Zm-87.88.7a.72.72,0,0,0-.69-.57h-.15a.71.71,0,0,0-.57.83.72.72,0,0,0,.7.58l.14,0a.7.7,0,0,0,.58-.7S214,269.64,214,269.6Zm86.57,4.8a.85.85,0,0,0-.22,0,.73.73,0,0,0-.68.49.72.72,0,0,0,.47.9.52.52,0,0,0,.21,0,.73.73,0,0,0,.68-.49.89.89,0,0,0,0-.22A.7.7,0,0,0,300.58,274.4Zm-85.19.59h0a.68.68,0,0,0-.66-.48.85.85,0,0,0-.23,0,.71.71,0,0,0,.22,1.39.83.83,0,0,0,.22,0,.71.71,0,0,0,.43-.4.61.61,0,0,0,0-.35A.4.4,0,0,0,215.39,275Zm83.2,4.7a.87.87,0,0,0-.31-.07.7.7,0,0,0-.64.41.72.72,0,0,0,.34,1,.63.63,0,0,0,.3.07.71.71,0,0,0,.65-.41.8.8,0,0,0,.06-.3A.73.73,0,0,0,298.59,279.69Zm-81.13.47h0a.71.71,0,0,0-.65-.41.64.64,0,0,0-.3.08.7.7,0,0,0-.34.94.71.71,0,0,0,.64.41.67.67,0,0,0,.31-.07A.72.72,0,0,0,217.46,280.16Zm78.48,4.53a.67.67,0,0,0-.38-.11.72.72,0,0,0-.6.33.7.7,0,0,0,.22,1,.66.66,0,0,0,.37.11.7.7,0,0,0,.61-.33.67.67,0,0,0,.11-.38A.72.72,0,0,0,295.94,284.69Zm-75.79.33a.73.73,0,0,0-.61-.33.72.72,0,0,0-.37.11.7.7,0,0,0-.22,1,.71.71,0,0,0,.59.32.66.66,0,0,0,.39-.11.72.72,0,0,0,.33-.6A.73.73,0,0,0,220.15,285Zm72.54,4.3a.72.72,0,0,0-.45-.17.71.71,0,0,0-.46,1.26.75.75,0,0,0,.46.17.74.74,0,0,0,.55-.26.77.77,0,0,0,.16-.45A.71.71,0,0,0,292.69,289.32Zm-69.26.19a.72.72,0,0,0-.55-.26.65.65,0,0,0-.45.17.7.7,0,0,0-.26.54.75.75,0,0,0,.16.45h0a.77.77,0,0,0,.55.26.75.75,0,0,0,.46-.17.71.71,0,0,0,.25-.55A.69.69,0,0,0,223.43,289.51Zm65.46,4a.7.7,0,0,0-.52-.22h-.1a.64.64,0,0,0-.39.18.71.71,0,0,0,.49,1.23.77.77,0,0,0,.49-.19.7.7,0,0,0,.21-.44.22.22,0,0,0,0-.08A.7.7,0,0,0,288.89,293.5Zm-61.64.05a.71.71,0,0,0-.49-.18.71.71,0,1,0,.71.7A.74.74,0,0,0,227.25,293.55Zm57.35,3.63a.72.72,0,1,0-.16,1,.67.67,0,0,0,.3-.57A.71.71,0,0,0,284.6,297.18Zm-53.06-.08a.75.75,0,0,0-.42-.14.71.71,0,0,0-.42,1.29.73.73,0,0,0,.42.14.71.71,0,0,0,.57-.3.65.65,0,0,0,.14-.42A.69.69,0,0,0,231.54,297.1Zm48.34,3.19a.7.7,0,0,0-.63-.37.72.72,0,0,0-.34.09.72.72,0,0,0,.35,1.34.59.59,0,0,0,.34-.1.69.69,0,0,0,.37-.62A.62.62,0,0,0,279.88,300.29Zm-43.64-.22a.85.85,0,0,0-.35-.08.7.7,0,0,0-.62.37.72.72,0,0,0,.28,1,.84.84,0,0,0,.34.08.71.71,0,0,0,.35-1.34Zm38.57,2.71a.7.7,0,0,0-.66-.44.6.6,0,0,0-.26.05.72.72,0,0,0-.4.92.71.71,0,0,0,.66.45.58.58,0,0,0,.26-.05.7.7,0,0,0,.45-.66A.65.65,0,0,0,274.81,302.78Zm-33.54-.34a.56.56,0,0,0-.25-.05.71.71,0,0,0-.67.45.6.6,0,0,0,0,.26.69.69,0,0,0,.18.47.6.6,0,0,0,.27.19h0a.56.56,0,0,0,.25.05.73.73,0,0,0,.64-.39.14.14,0,0,0,0-.06.6.6,0,0,0,.05-.26A.69.69,0,0,0,241.27,302.44Zm28.2,2.18a.71.71,0,0,0-.69-.53.51.51,0,0,0-.17,0,.7.7,0,0,0-.52.86.71.71,0,0,0,.69.53l.18,0a.71.71,0,0,0,.53-.68A1.23,1.23,0,0,0,269.47,304.62Zm-22.9-.48-.17,0a.74.74,0,0,0-.7.54.71.71,0,0,0,.52.86l.17,0a.71.71,0,0,0,.69-.54.52.52,0,0,0,0-.18A.71.71,0,0,0,246.57,304.14Zm17.37,1.63a.71.71,0,0,0-.71-.62h-.09a.7.7,0,0,0-.61.8.71.71,0,0,0,.7.63h.09a.7.7,0,0,0,.62-.7Zm-11.9-.59h-.1a.7.7,0,0,0-.7.63.72.72,0,0,0,.62.79H252a.71.71,0,0,0,.71-.62v-.1A.69.69,0,0,0,252,305.18Zm6.19.74a.69.69,0,0,0-.64-.41.71.71,0,1,0,0,1.42.7.7,0,0,0,.64-.4.64.64,0,0,0,.07-.31A.73.73,0,0,0,258.23,305.92Z" transform="translate(-159.47 -60.16)"/><path class="cls-1" d="M257.52,60.16,244.7,97.25l5,5.85,1.08,1.26,6.05,7.12.71.84.71-.84,6.06-7.12,1.06-1.26,5-5.85Zm7.29,41.39-1.06,1.26-5.52,6.47-.71.84-.71-.84-5.52-6.47-1.07-1.26-3.91-4.61,10.5-30.37.71-2.06.71,2.06,10.5,30.37Z" transform="translate(-159.47 -60.16)"/><path class="cls-1" d="M265.35,103.1l-.54-1.55-6.58-19-.71-2.06-.71,2.06-6.59,19-.54,1.55-5,14.43,12.11,14.22.71.84.71-.83,12.11-14.23Zm-7.83,27.3-.71-.84-10.5-12.34,4.45-12.86.53-1.55,5.52-16,.71-2,.71,2,5.52,16,.54,1.55,4.44,12.86-10.5,12.34Z" transform="translate(-159.47 -60.16)"/><path class="cls-1" d="M271.75,427.94l-.66-1.42L258.23,398.7l-.71-1.54-.71,1.54-12.87,27.82-.65,1.42-6.52,14.11h11.72a5.63,5.63,0,0,1,0-.71,5.53,5.53,0,0,1,0-.71H239l5.87-12.69.65-1.42,11.3-24.43.71-1.54.71,1.54,11.3,24.43.65,1.42L276,440.63h-9.48a5.54,5.54,0,0,1,0,.71,5.62,5.62,0,0,1,0,.71h11.71Z" transform="translate(-159.47 -60.16)"/><path class="cls-1" d="M258.23,384.59l-.71-1.54-.71,1.54-20,43.35h41.5ZM239,426.52,256.81,388l.71-1.53.71,1.53L276,426.52Z" transform="translate(-159.47 -60.16)"/><polygon class="cls-1" points="164.47 283.44 163.07 283.15 164.88 274.54 155.6 274.54 155.6 273.11 166.64 273.11 164.47 283.44"/><polygon class="cls-1" points="175.25 273.5 173.83 273.49 173.88 264.69 164.78 266.55 164.5 265.16 175.31 262.94 175.25 273.5"/><polygon class="cls-1" points="182.43 261.87 180.72 253.24 172.18 256.89 171.62 255.58 181.77 251.24 183.83 261.6 182.43 261.87"/><polygon class="cls-1" points="188.53 248.77 185.13 240.66 177.49 245.94 176.68 244.77 185.76 238.49 189.85 248.22 188.53 248.77"/><polygon class="cls-1" points="191.89 234.71 186.92 227.44 180.5 234.15 179.47 233.16 187.11 225.19 193.06 233.9 191.89 234.71"/><polygon class="cls-1" points="21.37 135.06 22.24 124.54 23.66 124.66 22.93 133.43 32.15 132.28 32.32 133.69 21.37 135.06"/><polygon class="cls-1" points="14.02 146.22 12.77 135.74 14.19 135.57 15.23 144.31 24.02 141.34 24.48 142.69 14.02 146.22"/><polygon class="cls-1" points="9.06 158.63 5.74 148.62 7.09 148.17 9.86 156.52 17.88 151.84 18.6 153.07 9.06 158.63"/><polygon class="cls-1" points="6.69 171.78 1.42 162.64 2.66 161.93 7.05 169.55 13.97 163.37 14.92 164.43 6.69 171.78"/><polygon class="cls-1" points="7 185.15 0.01 177.24 1.07 176.29 6.9 182.89 12.44 175.44 13.59 176.29 7 185.15"/><path class="cls-1" d="M268,440.63a10.51,10.51,0,0,0-9.76-9.76c-.24,0-.47,0-.71,0s-.48,0-.71,0a10.51,10.51,0,0,0-9.76,9.76c0,.23,0,.47,0,.71s0,.47,0,.71a10.49,10.49,0,0,0,20.94,0c0-.24,0-.47,0-.71S268,440.86,268,440.63Zm-10.47,9.78a9.06,9.06,0,0,1-9-8.36,5.63,5.63,0,0,1,0-.71,5.53,5.53,0,0,1,0-.71,9,9,0,0,1,8.32-8.32,5.53,5.53,0,0,1,.71,0,5.63,5.63,0,0,1,.71,0,9.06,9.06,0,0,1,8.33,8.32,5.54,5.54,0,0,1,0,.71,5.62,5.62,0,0,1,0,.71A9.08,9.08,0,0,1,257.52,450.41Z" transform="translate(-159.47 -60.16)"/><path class="cls-1" d="M258.23,339.19a5.62,5.62,0,0,0-.71,0,5.54,5.54,0,0,0-.71,0,8.25,8.25,0,0,0-6.62,4.44,8.5,8.5,0,0,0-.54,1.32h0a8.14,8.14,0,0,0-.37,2.44,8.24,8.24,0,0,0,7.53,8.2,5.54,5.54,0,0,0,.71,0,5.62,5.62,0,0,0,.71,0,8.23,8.23,0,0,0,6.87-5,7.2,7.2,0,0,0,.44-1.36,7.58,7.58,0,0,0,.22-1.86A8.25,8.25,0,0,0,258.23,339.19Zm5.46,11.08a6.78,6.78,0,0,1-5.46,3.9,5.63,5.63,0,0,1-.71,0,5.53,5.53,0,0,1-.71,0,6.81,6.81,0,0,1-6.1-6.77,6.77,6.77,0,0,1,.76-3.13,6.79,6.79,0,0,1,5.34-3.65,5.53,5.53,0,0,1,.71,0,5.63,5.63,0,0,1,.71,0,6.83,6.83,0,0,1,6.11,6.78,6.33,6.33,0,0,1-.18,1.52A6.16,6.16,0,0,1,263.69,350.27Z" transform="translate(-159.47 -60.16)"/><path class="cls-1" d="M255.9,327.08h-.06a.72.72,0,0,0,0,1.43H256a.71.71,0,0,0,.65-.7v-.06A.72.72,0,0,0,255.9,327.08Zm5.8.37-.14,0a.71.71,0,0,0-.14,1.41l.14,0a.73.73,0,0,0,.7-.57.76.76,0,0,0,0-.15A.7.7,0,0,0,261.7,327.45ZM251,328.81a.7.7,0,0,0-.67-.46.69.69,0,0,0-.24,0,.71.71,0,0,0,.25,1.37.78.78,0,0,0,.26,0,.71.71,0,0,0,.45-.67A.56.56,0,0,0,251,328.81Zm16.2.66a.71.71,0,0,0-1,.28.71.71,0,0,0,.28,1,.75.75,0,0,0,.34.09.71.71,0,0,0,.35-1.34Zm-21.23,2a.74.74,0,0,0-.56-.27.75.75,0,0,0-.44.15.7.7,0,0,0-.12,1,.72.72,0,0,0,.56.28.68.68,0,0,0,.44-.16.69.69,0,0,0,.27-.56A.73.73,0,0,0,246,331.43ZM271.94,333a.73.73,0,0,0-.51-.21.7.7,0,0,0-.5.21.71.71,0,0,0,0,1,.71.71,0,0,0,1.21-.51A.72.72,0,0,0,271.94,333Zm-30,2.39a.74.74,0,0,0-.42-.13.73.73,0,0,0-.58.3.72.72,0,0,0,.17,1,.71.71,0,0,0,.83-1.16Zm33.52,2.32a.7.7,0,0,0-.63-.37.76.76,0,0,0-.33.08.71.71,0,0,0-.29,1,.7.7,0,0,0,.63.37.66.66,0,0,0,.33-.09.7.7,0,0,0,.38-.62A.67.67,0,0,0,275.45,337.7Zm-36.31,2.63a.66.66,0,0,0-.23,0,.71.71,0,0,0-.23,1.39.93.93,0,0,0,.23,0,.71.71,0,0,0,.67-.49.59.59,0,0,0,0-.23A.7.7,0,0,0,239.14,340.33Zm38.34,2.89a.74.74,0,0,0-.71-.57l-.14,0a.71.71,0,0,0-.55.84.7.7,0,0,0,.7.56h.14a.72.72,0,0,0,.57-.7C277.49,343.31,277.48,343.27,277.48,343.22Zm-39.59,2.65h0a.71.71,0,0,0,0,1.42h0a.72.72,0,0,0,.71-.68v0A.71.71,0,0,0,237.89,345.87Zm39.3.82a.71.71,0,1,0,.71.71A.71.71,0,0,0,277.19,346.69Zm-38.05,5.36h0a.74.74,0,0,0-.7-.54l-.17,0a.72.72,0,0,0,.17,1.41l.18,0A.72.72,0,0,0,239.14,352.05Zm37.44.28-.21,0a.71.71,0,0,0-.2,1.39l.21,0a.7.7,0,0,0,.68-.51.68.68,0,0,0,0-.2A.71.71,0,0,0,276.58,352.33Zm-35.35,4.77a.71.71,0,0,0-.62-.35.78.78,0,0,0-.36.1.75.75,0,0,0-.35.62.78.78,0,0,0,.1.36h0a.71.71,0,0,0,.61.34.6.6,0,0,0,.36-.1.71.71,0,0,0,.35-.61A.68.68,0,0,0,241.23,357.1Zm33.15.46a.71.71,0,0,0-.39-.12.72.72,0,0,0-.39,1.31.68.68,0,0,0,.39.11.7.7,0,0,0,.6-.32.76.76,0,0,0,.11-.38A.72.72,0,0,0,274.38,357.56Zm-29.7,3.78a.71.71,0,0,0-.49-.18.7.7,0,0,0-.52.22.71.71,0,0,0,0,1,.7.7,0,0,0,.48.19.72.72,0,0,0,.53-.23.74.74,0,0,0,.18-.48A.73.73,0,0,0,244.68,361.34Zm26.1.61a.7.7,0,0,0-.55-.25.74.74,0,0,0-.46.16.71.71,0,0,0-.08,1,.69.69,0,0,0,.54.25.73.73,0,0,0,.46-.17.7.7,0,0,0,.25-.55A.71.71,0,0,0,270.78,362Zm-21.59,2.48a.71.71,0,0,0-.95.33.7.7,0,0,0,.64,1,.7.7,0,0,0,.64-.4.64.64,0,0,0,.07-.31A.7.7,0,0,0,249.19,364.43Zm16.88.7a.69.69,0,0,0-.64-.43.66.66,0,0,0-.3.07.71.71,0,0,0,.3,1.36.94.94,0,0,0,.28-.06.74.74,0,0,0,.42-.66A.55.55,0,0,0,266.07,365.13Zm-11.67,1h-.12a.71.71,0,0,0-.11,1.42h.11a.71.71,0,0,0,.12-1.41Zm6.26.73a.72.72,0,0,0-.7-.63h-.09a.71.71,0,0,0,.08,1.42H260a.71.71,0,0,0,.62-.71Z" transform="translate(-159.47 -60.16)"/><circle class="cls-1" cx="98.05" cy="114.22" r="7.53"/><path class="cls-1" d="M256.81,156.84a.7.7,0,0,0-.58-.3h-.05a.71.71,0,0,0,.05,1.42h0a.71.71,0,0,0,.53-.3.75.75,0,0,0,.12-.4v-.06A.62.62,0,0,0,256.81,156.84Zm5.24.23-.18,0a.72.72,0,0,0-.69.53.7.7,0,0,0,.51.86.57.57,0,0,0,.18,0,.71.71,0,0,0,.69-.53.51.51,0,0,0,0-.17A.74.74,0,0,0,262.05,157.07Zm-10.67,1.25a.7.7,0,0,0-.65-.43.61.61,0,0,0-.29.06.71.71,0,0,0-.37.93.72.72,0,0,0,.66.43.66.66,0,0,0,.27-.06.71.71,0,0,0,.44-.66A.66.66,0,0,0,251.38,158.32Zm16.06,1.17a.72.72,0,0,0-1,.19.72.72,0,0,0,.59,1.11.69.69,0,0,0,.59-.32.62.62,0,0,0,.12-.39A.72.72,0,0,0,267.44,159.49Zm-20.95,1.7A.71.71,0,0,0,246,161a.66.66,0,0,0-.48.18.71.71,0,0,0-.05,1,.7.7,0,0,0,.53.23.69.69,0,0,0,.47-.18.72.72,0,0,0,.24-.53A.71.71,0,0,0,246.49,161.19Zm25.25,2.33a.69.69,0,0,0-.56-.28.73.73,0,0,0-.44.15.71.71,0,0,0,.44,1.28.7.7,0,0,0,.43-.15.69.69,0,0,0,.28-.57A.7.7,0,0,0,271.74,163.52Zm-28.94,2a.76.76,0,0,0-.35-.09.7.7,0,0,0-.62.37.72.72,0,0,0,.62,1.06.74.74,0,0,0,.63-.37.72.72,0,0,0,.09-.34A.74.74,0,0,0,242.8,165.49Zm31.71,3.25a.72.72,0,0,0-.68-.49.66.66,0,0,0-.23,0,.72.72,0,0,0,.23,1.39.59.59,0,0,0,.22-.05.69.69,0,0,0,.49-.67A.83.83,0,0,0,274.51,168.74Zm-33.81,2-.13,0a.71.71,0,0,0-.69.59.73.73,0,0,0,.58.83h.12a.73.73,0,0,0,.41-.12.71.71,0,0,0,.29-.47.5.5,0,0,0,0-.12A.7.7,0,0,0,240.7,170.77Zm34,2.91a.71.71,0,1,0,.71.71A.71.71,0,0,0,274.71,173.68ZM241.25,177a.7.7,0,0,0-.69-.6h-.12a.71.71,0,0,0-.59.81.72.72,0,0,0,.71.61l.11,0a.69.69,0,0,0,.59-.69A.49.49,0,0,0,241.25,177Zm33.23,3a.71.71,0,0,0-.48-.67.64.64,0,0,0-.23-.05.71.71,0,0,0-.67.49.71.71,0,0,0,.44.9,1,1,0,0,0,.23,0,.73.73,0,0,0,.68-.48h0A.66.66,0,0,0,274.48,180ZM243,182.16a.75.75,0,0,0-.63-.37.72.72,0,0,0-.34.09.69.69,0,0,0-.29,1h0a.72.72,0,0,0,.63.37.71.71,0,0,0,.34-.08.74.74,0,0,0,.37-.63A.81.81,0,0,0,243,182.16Zm28.63,2.37h0a.28.28,0,0,0-.12-.12.82.82,0,0,0-.2-.12h0a.7.7,0,0,0-.78.24.71.71,0,0,0,.56,1.15.71.71,0,0,0,.56-.27h0a.69.69,0,0,0,0-.86Zm-25.32,1.93a.66.66,0,0,0-.48-.19.72.72,0,0,0-.48,1.24.75.75,0,0,0,.48.19.71.71,0,0,0,.52-.23.7.7,0,0,0,.19-.49A.71.71,0,0,0,246.31,186.46Zm21.18,1.94a.73.73,0,0,0-.6-.32.68.68,0,0,0-.38.12.71.71,0,0,0,.38,1.3.77.77,0,0,0,.39-.11.72.72,0,0,0,.32-.6A.7.7,0,0,0,267.49,188.4Zm-16.64,1.06a.59.59,0,0,0-.29-.07.72.72,0,0,0-.65.42.71.71,0,0,0,.36.94.77.77,0,0,0,.29.07.71.71,0,0,0,.65-.42.82.82,0,0,0,.07-.3A.69.69,0,0,0,250.85,189.46Zm11.54,1.43a.7.7,0,0,0-.69-.54.52.52,0,0,0-.17,0,.71.71,0,0,0,.17,1.4l.17,0a.72.72,0,0,0,.54-.69A.47.47,0,0,0,262.39,190.89Zm-6.27-.09h-.07a.71.71,0,0,0-.06,1.42h.06a.71.71,0,0,0,.71-.65v-.06A.71.71,0,0,0,256.12,190.8Z" transform="translate(-159.47 -60.16)"/><path class="cls-1" d="M159.47,260.16c8-.16,16-.23,24.06-.34l24.06-.2c16-.12,32.08-.11,48.12-.17s32.08.05,48.11.17l24.06.19c8,.12,16,.19,24.06.35-8,.16-16,.23-24.06.35l-24.06.2c-16,.11-32.07.11-48.11.16s-32.08-.05-48.12-.16l-24.06-.2C175.51,260.39,167.49,260.32,159.47,260.16Z" transform="translate(-159.47 -60.16)"/><path class="cls-1" d="M187.66,328.21c5.55-5.78,11.18-11.5,16.76-17.26L221.3,293.8c11.25-11.42,22.6-22.76,33.9-34.14s22.72-22.65,34.14-33.91l17.16-16.87c5.75-5.59,11.47-11.21,17.26-16.77-5.56,5.79-11.18,11.51-16.77,17.26l-16.87,17.15c-11.26,11.43-22.61,22.76-33.91,34.15s-22.72,22.64-34.14,33.9l-17.16,16.88C199.16,317,193.44,322.66,187.66,328.21Z" transform="translate(-159.47 -60.16)"/><path class="cls-1" d="M193.69,198.15c5.32,5,10.55,10.12,15.82,15.18l15.69,15.32c10.44,10.23,20.77,20.58,31.16,30.86s20.63,20.72,30.86,31.16l15.32,15.68c5.06,5.28,10.16,10.51,15.18,15.83-5.31-5-10.55-10.12-15.82-15.18l-15.69-15.33c-10.44-10.23-20.77-20.57-31.16-30.85s-20.63-20.72-30.85-31.16L208.87,214C203.81,208.69,198.71,203.46,193.69,198.15Z" transform="translate(-159.47 -60.16)"/><rect class="cls-1" x="240.89" y="243.36" width="33.6" height="33.6" transform="translate(-267.96 198.25) rotate(-45)"/><path class="cls-2" d="M273.8,259.5l-8.24-8.24-7.86-7.87-8.91,8.91-.95.95-6.24,6.24-.67.67.67.67,6.24,6.24,1,1,8,8,.89.89.53-.54,6.38-6.38.94-.94,8.91-8.91Zm-9.69,10-5.88,5.88-.53.53-8.4-8.39-1-1-6.41-6.41,6.41-6.41,1-.95,7.51-7.51.89-.88,6.4,6.4,1,.95,8.39,8.4Z" transform="translate(-159.47 -60.16)"/><path class="cls-2" d="M266.14,259.48l-4.39-4.39-1-1-2.55-2.55-.53-.54-6,6-2.4,2.4-.69.69.69.69,2.39,2.4,6.06,6.05,4.05-4.05,4.39-4.4.69-.69Zm-4.89,5.26-1,1-2.06,2.06-.53.53-.89-.89-3.68-3.67-1-1-1.88-1.88-.7-.7,3.57-3.56,3.68-3.67.89-.89.53.53,2,2,1,1,3.89,3.89.68.68-.68.69Z" transform="translate(-159.47 -60.16)"/><path class="cls-1" d="M242.47,106.62c-.35,1-.72,2.06-1.09,3.08l-1.12,3.06q-1.15,3-2.36,6.07l-.11-.62c2.26,2.36,4.48,4.75,6.69,7.15l3.28,3.64c1.09,1.21,2.16,2.45,3.24,3.67l.16.18v.23c0,1.16-.06,2.32-.09,3.48l-.13,3.49c0,1.16-.11,2.32-.17,3.48s-.13,2.32-.23,3.48c-.09-1.16-.16-2.32-.22-3.48s-.14-2.32-.17-3.48l-.13-3.49c0-1.16-.08-2.32-.09-3.48l.16.42c-1.12-1.2-2.25-2.37-3.35-3.58l-3.31-3.6q-3.28-3.63-6.5-7.33l-.26-.29.15-.33c.91-2,1.82-3.94,2.75-5.9l1.43-2.93C241.48,108.56,242,107.59,242.47,106.62Z" transform="translate(-159.47 -60.16)"/><path class="cls-1" d="M272.63,106.62c.51,1,1,1.94,1.47,2.92l1.43,2.93q1.39,2.94,2.75,5.9l.15.33-.26.29q-3.21,3.7-6.5,7.33l-3.31,3.6c-1.1,1.21-2.23,2.38-3.35,3.58l.16-.42c0,1.16-.06,2.32-.09,3.48l-.13,3.49c0,1.16-.11,2.32-.17,3.48s-.13,2.32-.22,3.48c-.1-1.16-.16-2.32-.23-3.48s-.13-2.32-.17-3.48l-.13-3.49c0-1.16-.07-2.32-.09-3.48v-.23l.16-.18c1.08-1.22,2.15-2.46,3.24-3.67l3.28-3.64c2.21-2.4,4.43-4.79,6.69-7.15l-.11.62q-1.2-3-2.36-6.07l-1.12-3.06C273.35,108.68,273,107.65,272.63,106.62Z" transform="translate(-159.47 -60.16)"/><path class="cls-1" d="M266.05,370.38c.15,2.39.22,4.79.32,7.18l.12,3.6.09,3.59-.05-.23q2.72,5.25,5.34,10.55c1.76,3.52,3.47,7.07,5.19,10.62s3.37,7.13,5,10.71,3.24,7.2,4.77,10.83c-1.92-3.44-3.79-6.92-5.62-10.41s-3.61-7-5.38-10.53-3.51-7.06-5.21-10.62-3.41-7.11-5.06-10.69l-.05-.12v-.11l.09-3.59.11-3.6C265.83,375.17,265.9,372.77,266.05,370.38Z" transform="translate(-159.47 -60.16)"/><path class="cls-1" d="M249.23,370.38c.15,2.39.22,4.79.32,7.18l.12,3.6.09,3.59v.11l0,.12q-2.47,5.37-5.06,10.69c-1.7,3.56-3.46,7.09-5.21,10.62s-3.56,7-5.38,10.53-3.7,7-5.63,10.41q2.31-5.44,4.78-10.83c1.64-3.58,3.32-7.15,5-10.71s3.43-7.1,5.19-10.62,3.53-7.05,5.34-10.55l-.05.23.09-3.59.11-3.6C249,375.17,249.08,372.77,249.23,370.38Z" transform="translate(-159.47 -60.16)"/></svg>